<svg preserveAspectRatio="none" overflow="visible" style="display: block;" width="64" height="64" viewBox="0 0 64 64" fill="none" xmlns="http://www.w3.org/2000/svg">
<g id="ToolIcon" clip-path="url(#clip0_0_149)">
<path id="Vector" d="M12 64H52C58.6274 64 64 58.6274 64 52L64 12C64 5.37258 58.6274 0 52 0L12 0C5.37258 0 0 5.37258 0 12V52C0 58.6274 5.37258 64 12 64Z" fill="#FDD7A3"/>
<path id="Vector_2" d="M42 33.6666C42 38.3807 42 40.7377 40.5355 42.2022C39.0711 43.6666 36.714 43.6666 32 43.6666H27C22.286 43.6666 19.9289 43.6666 18.4645 42.2022C17 40.7377 17 38.3807 17 33.6666V25.3333C17 20.6192 17 18.2622 18.4645 16.7978C19.9289 15.3333 22.286 15.3333 27 15.3333H32C36.714 15.3333 39.0711 15.3333 40.5355 16.7978C42 18.2622 42 20.6192 42 25.3333V33.6666Z" stroke="#1D1D1D" stroke-width="1.8"/>
<path id="Vector_3" d="M35.0536 25.49C36.4779 25.49 37.6325 24.3353 37.6325 22.911C37.6325 21.4867 36.4779 20.3321 35.0536 20.3321C33.6293 20.3321 32.4747 21.4867 32.4747 22.911C32.4747 24.3353 33.6293 25.49 35.0536 25.49Z" stroke="#1D1D1D" stroke-width="1.8"/>
<path id="Vector_4" d="M17 28.714L19.2586 26.7377C20.4337 25.7095 22.2047 25.7685 23.3087 26.8726L28.8402 32.4041C29.7264 33.2902 31.1213 33.4111 32.1467 32.6905L32.5312 32.4202C34.0067 31.3833 36.0029 31.5034 37.3433 32.7098L41.5 36.4508" stroke="#1D1D1D" stroke-width="1.8" stroke-linecap="round"/>
<path id="Vector_5" d="M42 20.3333C44.7614 20.3333 47 22.5719 47 25.3333V35.3333C47 41.6187 47 44.7614 45.0474 46.714C43.0948 48.6666 39.9521 48.6666 33.6667 48.6666H27C24.2386 48.6666 22 46.428 22 43.6666" stroke="#1D1D1D" stroke-width="1.8"/>
</g>
<defs>
<clipPath id="clip0_0_149">
<rect width="64" height="64" fill="white"/>
</clipPath>
</defs>
</svg>
