<svg preserveAspectRatio="none" overflow="visible" style="display: block;" width="24" height="24" viewBox="0 0 24 24" fill="none" xmlns="http://www.w3.org/2000/svg">
<g id="IconSparkles3Bold">
<path id="Vector" d="M16 6.5C16.1545 6.5 16.2931 6.5951 16.3486 6.73926L17.4736 9.66504C17.626 10.061 17.939 10.374 18.335 10.5264L21.2607 11.6514C21.4049 11.7069 21.5 11.8455 21.5 12C21.5 12.1545 21.4049 12.2931 21.2607 12.3486L18.335 13.4736C17.939 13.626 17.626 13.939 17.4736 14.335L16.3486 17.2607C16.2931 17.4049 16.1545 17.5 16 17.5C15.8455 17.5 15.7069 17.4049 15.6514 17.2607L14.5264 14.335C14.374 13.939 14.061 13.626 13.665 13.4736L10.7393 12.3486C10.5951 12.2931 10.5 12.1545 10.5 12C10.5 11.8455 10.5951 11.7069 10.7393 11.6514L13.665 10.5264C14.061 10.374 14.374 10.061 14.5264 9.66504L15.6514 6.73926C15.7069 6.5951 15.8455 6.5 16 6.5Z" fill="white" stroke="white"/>
<path id="Vector_2" d="M7.24045 6.18518L6.54359 4.37334C6.45708 4.14842 6.24099 4 6 4C5.75901 4 5.54292 4.14842 5.45641 4.37334L4.75955 6.18518C4.65797 6.44927 4.44927 6.65797 4.18518 6.75955L2.37334 7.45641C2.14842 7.54292 2 7.75901 2 8C2 8.24099 2.14842 8.45708 2.37334 8.54359L4.18518 9.24045C4.44927 9.34203 4.65797 9.55073 4.75955 9.81482L5.45641 11.6267C5.54292 11.8516 5.75901 12 6 12C6.24099 12 6.45708 11.8516 6.54359 11.6267L7.24045 9.81482C7.34203 9.55073 7.55073 9.34203 7.81482 9.24045L9.62666 8.54359C9.85158 8.45708 10 8.24099 10 8C10 7.75901 9.85158 7.54292 9.62666 7.45641L7.81482 6.75955C7.55073 6.65797 7.34203 6.44927 7.24045 6.18518Z" fill="white"/>
<path id="Vector_3" d="M8.89045 15.5352L8.40769 14.28C8.34281 14.1113 8.18074 14 8 14C7.81926 14 7.65719 14.1113 7.59231 14.28L7.10955 15.5352C7.00797 15.7993 6.79927 16.008 6.53518 16.1095L5.28 16.5923C5.11131 16.6572 5 16.8193 5 17C5 17.1807 5.11131 17.3428 5.28 17.4077L6.53518 17.8905C6.79927 17.992 7.00797 18.2007 7.10955 18.4648L7.59231 19.72C7.65719 19.8887 7.81926 20 8 20C8.18074 20 8.34281 19.8887 8.40769 19.72L8.89045 18.4648C8.99203 18.2007 9.20073 17.992 9.46482 17.8905L10.72 17.4077C10.8887 17.3428 11 17.1807 11 17C11 16.8193 10.8887 16.6572 10.72 16.5923L9.46482 16.1095C9.20073 16.008 8.99203 15.7993 8.89045 15.5352Z" fill="white"/>
</g>
</svg>
